<svg width="485" height="134" viewBox="0 0 485 134" fill="none" xmlns="http://www.w3.org/2000/svg">
<path fill-rule="evenodd" clip-rule="evenodd" d="M377.502 1.72119V131.285H429.005C447.967 127.936 485.676 109.715 484.814 63.632C483.953 17.5488 442.344 3.1568 421.647 1.72119H377.502ZM403.413 27.6721V105.369H430.5C439.925 103.547 458.727 92.6806 458.537 63.788C458.347 34.8953 435.807 27.6721 424.56 27.6721H403.413Z" fill="white"/>
<path d="M295.483 26.075V129.558H269.801V0.902867H317.676C327.213 0.673983 334.432 2.5611 336.85 3.53326C379.596 23.2771 363.056 71.4548 336.85 81.4134L369.614 129.558H338.764L308.382 85.9766V59.8367H321.894C341.093 58.2267 339.092 26.075 321.894 26.075H295.483Z" fill="white"/>
<path d="M269.352 129.558H269.801M269.801 129.558H295.483V26.075H321.894C339.092 26.075 341.093 58.2267 321.894 59.8367H308.382V85.9766L338.764 129.558H369.614L336.85 81.4134C363.056 71.4548 379.596 23.2771 336.85 3.53326C334.432 2.5611 327.213 0.673983 317.676 0.902867H269.801V129.558Z" stroke="white"/>
<path d="M27.7051 129.337H0.527344L49.7352 0.76123H72.8403L122.183 129.337H92.9838L60.9218 39.6086L27.7051 129.337Z" fill="white"/>
<path d="M60.8645 133.239L40.2704 97.5687L81.4586 97.5687L60.8645 133.239Z" fill="white"/>
<path d="M126.27 9.2619L153.813 0.76123V129.337H126.27V9.2619Z" fill="#00988D"/>
<rect x="171.156" y="0.76123" width="84.2363" height="24.4822" fill="white"/>
<rect x="171.156" y="52.8081" width="84.2363" height="24.4822" fill="white"/>
<rect x="171.156" y="104.855" width="84.2363" height="24.4822" fill="white"/>
</svg>
