<svg width="25" height="25" viewBox="0 0 25 25" fill="none" xmlns="http://www.w3.org/2000/svg">
<path d="M22.1825 10.7436L6.43255 1.75392C6.16689 1.60437 5.86195 1.53931 5.55838 1.56743C5.25481 1.59554 4.96702 1.71549 4.73334 1.9113C4.49966 2.1071 4.33119 2.36946 4.25037 2.66342C4.16956 2.95738 4.18024 3.26899 4.28099 3.55674L7.15255 12.0561L4.28099 20.5564C4.20107 20.7826 4.17658 21.0247 4.20955 21.2623C4.24253 21.4999 4.33201 21.7262 4.4705 21.922C4.60899 22.1179 4.79243 22.2777 5.00545 22.3881C5.21847 22.4984 5.45484 22.556 5.69474 22.5561C5.95537 22.5556 6.21144 22.4878 6.43818 22.3592L22.1807 13.3545C22.4129 13.2245 22.6063 13.035 22.7411 12.8055C22.8758 12.576 22.9471 12.3147 22.9476 12.0486C22.9481 11.7824 22.8777 11.5209 22.7438 11.291C22.6098 11.061 22.4171 10.8708 22.1854 10.7399L22.1825 10.7436ZM5.69474 21.0561C5.69514 21.0524 5.69514 21.0486 5.69474 21.0449L8.48286 12.8061H13.9447C14.1437 12.8061 14.3344 12.7271 14.4751 12.5864C14.6157 12.4458 14.6947 12.255 14.6947 12.0561C14.6947 11.8572 14.6157 11.6664 14.4751 11.5258C14.3344 11.3851 14.1437 11.3061 13.9447 11.3061H8.48286L5.70036 3.07111C5.69944 3.0658 5.69753 3.06071 5.69474 3.05611L21.4447 12.0402L5.69474 21.0561Z" fill="black"/>
</svg>
