<svg id="svg" version="1.1" xmlns="http://www.w3.org/2000/svg" xmlns:xlink="http://www.w3.org/1999/xlink" width="400" height="384.90566037735846" viewBox="0, 0, 400,384.90566037735846"><g id="svgg"><path id="path0" d="M176.131 89.022 C 175.462 90.388,173.804 92.628,172.193 94.340 C 168.983 97.752,168.161 99.430,167.068 104.794 C 166.169 109.203,165.297 111.157,163.211 113.437 C 161.475 115.333,161.191 116.263,160.118 123.580 C 159.096 130.554,158.316 132.724,156.145 134.636 C 153.665 136.821,152.884 138.685,152.428 143.508 C 151.775 150.430,150.774 153.418,148.209 156.112 C 146.535 157.870,144.999 161.367,144.609 164.310 C 144.102 168.128,142.923 171.131,141.152 173.110 C 138.760 175.784,138.676 176.024,137.627 183.134 C 136.395 191.493,135.938 192.827,133.604 194.895 C 131.221 197.007,130.336 198.846,129.760 202.887 C 128.672 210.524,127.487 214.417,125.658 216.362 C 123.989 218.137,122.481 221.508,122.010 224.520 C 121.354 228.710,120.207 231.576,118.365 233.625 C 116.193 236.041,116.008 236.573,115.083 243.082 C 113.935 251.155,113.211 253.282,110.919 255.314 C 108.647 257.329,107.970 258.595,107.207 262.256 C 106.374 266.257,104.372 271.661,102.929 273.805 C 101.586 275.802,100.140 280.397,99.137 285.852 C 98.352 290.126,97.412 292.326,95.518 294.321 C 93.604 296.337,93.316 297.181,92.405 303.446 C 91.071 312.621,90.733 313.581,88.008 315.938 C 86.118 317.573,84.312 320.634,84.312 322.202 C 84.312 322.757,83.963 324.468,83.537 326.006 C 82.749 328.851,82.772 329.453,83.798 332.719 C 84.919 336.289,83.670 336.096,105.442 336.069 L 124.543 336.045 127.039 331.038 C 128.412 328.284,130.020 325.566,130.612 324.998 C 132.060 323.610,132.762 322.233,133.640 319.065 C 134.600 315.600,136.723 311.419,138.547 309.402 C 140.440 307.306,140.773 306.322,141.298 301.251 C 142.089 293.629,143.296 289.900,145.897 287.049 C 147.647 285.130,148.025 284.433,148.998 281.333 C 149.413 280.007,150.190 278.165,150.723 277.239 C 151.644 275.640,151.681 275.354,151.457 271.465 L 151.222 267.372 152.452 265.544 C 153.128 264.538,153.835 263.715,154.023 263.715 C 154.752 263.715,155.842 260.633,156.609 256.400 C 157.050 253.965,157.692 250.414,158.035 248.508 C 158.691 244.866,159.854 242.366,161.493 241.077 C 162.553 240.242,162.969 239.334,164.053 235.485 C 165.067 231.885,166.859 228.448,168.824 226.334 C 170.607 224.416,171.069 222.936,171.514 217.709 C 172.071 211.158,173.639 206.583,176.309 203.720 C 178.143 201.753,178.377 201.026,179.399 194.104 C 180.394 187.372,181.316 184.272,182.960 182.129 C 185.636 178.641,185.917 178.134,186.349 176.011 C 187.366 171.012,189.378 165.682,190.891 163.978 L 192.358 162.324 194.165 163.989 C 195.246 164.986,196.440 166.636,197.138 168.100 C 197.780 169.445,199.225 171.543,200.349 172.761 C 203.500 176.176,203.436 175.995,205.427 187.103 C 206.531 193.259,206.979 194.623,208.274 195.765 C 210.737 197.938,211.813 200.979,213.058 209.298 C 214.003 215.615,214.637 217.535,216.174 218.744 C 218.442 220.528,220.964 227.037,221.943 233.635 C 222.497 237.367,222.635 237.739,224.056 239.353 C 225.885 241.431,226.784 243.718,228.553 250.790 C 229.569 254.853,230.264 256.765,231.421 258.682 C 233.675 262.417,234.796 267.172,234.831 273.147 C 234.845 275.672,235.355 276.780,237.920 279.862 C 240.451 282.903,241.634 285.830,242.930 292.256 C 244.288 298.990,244.824 300.480,246.435 302.001 C 248.167 303.635,248.936 305.486,249.642 309.721 C 251.450 320.560,252.130 322.934,253.889 324.543 C 254.467 325.072,256.137 327.887,257.598 330.799 L 260.255 336.092 282.987 336.092 L 305.718 336.092 306.282 334.743 C 308.543 329.331,307.949 325.669,304.157 321.646 C 301.898 319.249,300.944 316.791,300.120 311.249 C 299.178 304.911,298.843 303.921,296.996 302.021 C 295.188 300.160,294.058 297.578,293.369 293.726 C 292.252 287.489,290.986 283.709,289.403 281.880 C 287.245 279.386,286.473 277.303,285.667 271.800 C 284.844 266.184,283.942 263.851,281.639 261.389 C 279.488 259.089,278.891 257.896,277.975 254.061 C 276.655 248.533,275.544 245.064,274.840 244.272 C 273.346 242.592,270.260 233.685,270.260 231.053 C 270.260 229.714,268.451 225.828,267.213 224.505 C 264.937 222.076,263.888 218.743,262.961 210.993 C 262.456 206.774,261.227 204.086,259.240 202.858 C 257.508 201.788,256.233 198.934,255.271 193.977 C 254.048 187.676,253.157 185.159,251.625 183.674 C 249.702 181.810,248.760 179.255,247.949 173.707 C 247.145 168.208,246.183 165.590,244.292 163.754 C 242.801 162.306,242.067 160.230,240.226 152.262 C 238.807 146.120,238.578 145.579,236.423 143.254 C 234.561 141.244,233.549 138.728,232.744 134.103 C 231.759 128.452,230.518 124.998,228.750 122.989 C 226.853 120.834,225.803 117.822,225.229 112.887 C 224.684 108.199,223.650 105.555,221.322 102.895 C 219.839 101.201,219.251 100.122,218.653 98.003 C 218.231 96.507,217.272 93.335,216.521 90.953 L 215.155 86.622 196.220 86.642 L 177.286 86.663 176.131 89.022 M161.772 279.889 C 159.678 282.137,160.271 284.615,163.580 287.448 C 165.428 289.030,167.017 291.946,168.259 296.035 C 169.004 298.486,169.404 299.138,171.173 300.785 C 172.553 302.070,173.471 303.339,173.982 304.667 C 176.058 310.075,177.463 312.718,179.139 314.371 C 180.456 315.669,181.098 316.733,181.739 318.682 C 183.013 322.555,184.299 324.904,186.332 327.068 C 188.575 329.454,189.250 330.721,189.998 333.947 C 190.552 336.337,191.883 339.172,192.451 339.172 C 192.949 339.172,195.871 335.906,196.512 334.632 C 196.863 333.934,197.818 332.895,198.635 332.322 C 200.517 331.002,201.211 329.833,202.172 326.364 C 203.167 322.774,204.639 320.098,206.397 318.686 C 208.106 317.313,209.443 314.883,210.565 311.113 C 211.246 308.825,211.779 307.882,213.300 306.273 C 215.090 304.381,215.691 303.240,218.961 295.540 C 219.306 294.728,220.367 293.398,221.319 292.584 C 222.789 291.328,223.247 290.562,224.350 287.516 C 226.266 282.222,226.258 282.513,224.541 280.707 L 223.026 279.115 192.760 279.115 C 162.926 279.115,162.484 279.126,161.772 279.889 " stroke="none" fill="#f6f6f6" fill-rule="evenodd"></path><path id="path1" d="M362.271 92.093 C 356.428 92.810,350.835 94.284,350.184 95.277 C 348.728 97.499,344.865 98.714,333.494 100.525 C 326.818 101.588,327.309 101.279,326.429 104.957 C 325.727 107.890,325.704 111.586,325.701 218.515 C 325.697 339.594,325.532 329.727,327.644 334.274 L 328.140 335.342 348.083 335.236 C 370.880 335.115,369.386 335.363,370.005 331.598 C 370.684 327.465,370.414 94.575,369.728 93.596 C 369.049 92.627,366.950 91.592,365.845 91.682 C 365.468 91.713,363.859 91.898,362.271 92.093 " stroke="none" fill="#049c8c" fill-rule="evenodd"></path><path id="path2" d="M175.538 83.638 C 174.831 84.115,173.373 85.651,172.298 87.052 C 171.223 88.453,169.775 90.078,169.080 90.663 C 167.398 92.079,166.185 94.572,164.735 99.596 C 163.425 104.136,162.834 105.490,161.429 107.174 C 159.289 109.737,158.248 112.959,157.252 120.099 C 156.531 125.269,155.807 127.340,153.815 129.933 C 151.636 132.768,150.702 135.135,149.571 140.680 C 148.294 146.938,147.925 147.987,146.211 150.226 C 144.689 152.214,142.905 156.531,141.870 160.731 C 141.108 163.827,140.245 165.658,138.429 168.037 C 136.678 170.332,135.683 173.509,134.716 179.894 C 133.822 185.790,133.190 187.647,131.177 190.285 C 129.254 192.803,128.337 194.906,127.258 199.265 C 126.238 203.387,125.506 205.234,123.908 207.711 C 123.019 209.091,121.009 214.952,118.600 223.194 C 118.148 224.739,117.309 226.543,116.719 227.237 C 114.114 230.300,113.092 233.181,112.004 240.528 C 111.152 246.288,110.504 248.005,107.645 252.084 C 106.526 253.680,105.726 255.385,105.295 257.089 C 104.177 261.505,103.101 264.124,101.864 265.440 C 101.209 266.137,100.363 267.052,99.982 267.474 C 99.530 267.977,98.718 270.950,97.630 276.084 C 95.792 284.765,95.414 285.881,93.438 288.469 C 91.545 290.949,90.544 293.882,89.672 299.505 C 88.764 305.358,87.700 308.801,86.230 310.646 C 84.223 313.165,82.366 316.613,81.546 319.346 C 80.574 322.585,79.583 324.629,78.079 326.501 C 77.157 327.649,76.856 328.569,76.391 331.665 C 75.150 339.922,75.077 339.901,104.735 339.925 L 124.966 339.942 126.610 338.884 C 127.646 338.216,128.763 336.972,129.633 335.515 C 130.392 334.244,131.660 332.339,132.450 331.280 C 134.490 328.548,135.451 326.472,136.153 323.282 C 136.894 319.916,138.712 316.317,140.207 315.251 C 142.519 313.605,144.370 307.788,144.370 302.167 C 144.370 297.839,145.285 295.261,147.806 292.494 C 150.016 290.068,150.565 289.051,151.706 285.274 C 153.789 278.379,155.358 277.989,157.128 283.927 C 158.191 287.494,159.471 289.956,161.117 291.602 C 163.127 293.611,164.628 296.190,165.751 299.562 C 166.472 301.729,167.220 303.096,168.407 304.417 C 170.064 306.262,171.957 309.700,173.622 313.892 C 174.127 315.164,175.314 317.013,176.360 318.157 C 177.570 319.481,178.542 321.070,179.182 322.770 C 180.665 326.711,182.779 330.497,184.235 331.823 C 185.749 333.200,186.554 334.628,187.374 337.393 C 188.684 341.808,191.444 345.770,192.761 345.126 C 193.793 344.622,202.674 334.933,203.376 333.545 C 203.685 332.935,204.334 331.222,204.819 329.740 C 205.859 326.563,206.349 325.714,208.514 323.343 C 210.316 321.369,211.603 319.024,213.298 314.621 C 214.086 312.574,214.950 311.146,216.134 309.929 C 217.407 308.622,218.391 306.918,220.038 303.176 C 221.641 299.531,222.726 297.638,224.032 296.207 C 225.035 295.109,226.062 293.496,226.361 292.550 C 227.162 290.019,229.783 284.889,230.275 284.889 C 230.512 284.889,232.270 285.712,234.183 286.718 C 238.221 288.842,238.428 289.160,240.034 295.689 C 240.578 297.901,241.287 300.751,241.609 302.021 C 241.931 303.292,242.974 305.944,243.927 307.914 C 245.910 312.015,246.581 314.071,248.473 321.834 C 250.662 330.820,254.109 337.038,257.989 339.005 L 259.840 339.942 283.023 339.942 C 308.948 339.942,307.777 340.061,310.581 337.155 L 311.792 335.900 311.470 331.473 C 311.004 325.049,308.392 317.802,306.247 316.979 C 304.884 316.456,303.832 313.634,303.039 308.373 C 302.025 301.643,301.073 298.678,299.089 296.075 C 297.009 293.345,296.639 292.396,295.446 286.737 C 294.167 280.667,293.355 278.390,291.633 276.043 C 290.479 274.472,289.986 273.132,288.767 268.256 C 287.074 261.483,286.080 259.131,284.055 257.106 C 281.855 254.906,281.247 253.329,279.712 245.840 C 278.177 238.352,277.887 237.515,275.847 234.699 C 275.100 233.667,274.124 231.588,273.679 230.079 C 271.257 221.869,269.710 217.317,268.698 215.420 C 268.075 214.253,267.058 211.432,266.438 209.152 C 264.789 203.088,263.968 201.344,260.955 197.498 C 259.447 195.572,258.846 193.918,257.725 188.607 C 256.507 182.838,255.533 180.138,253.822 177.780 C 252.830 176.413,252.222 174.845,251.359 171.428 C 250.729 168.933,249.700 165.287,249.072 163.326 C 248.444 161.364,247.931 159.542,247.931 159.276 C 247.931 159.010,247.233 157.409,246.380 155.719 C 245.527 154.029,244.056 150.221,243.110 147.257 C 241.420 141.964,239.955 138.866,238.330 137.154 C 237.050 135.804,236.195 133.425,235.043 128.008 C 233.853 122.413,232.925 119.751,231.519 117.902 C 230.195 116.161,229.669 114.772,228.337 109.495 C 226.931 103.929,225.574 100.231,224.159 98.114 C 223.576 97.241,222.797 96.075,222.427 95.521 C 222.058 94.967,221.123 92.608,220.349 90.279 C 219.175 86.747,218.673 85.773,217.318 84.408 L 215.693 82.772 196.258 82.772 L 176.822 82.772 175.538 83.638 M216.521 90.953 C 217.272 93.335,218.231 96.507,218.653 98.003 C 219.251 100.122,219.839 101.201,221.322 102.895 C 223.650 105.555,224.684 108.199,225.229 112.887 C 225.803 117.822,226.853 120.834,228.750 122.989 C 230.518 124.998,231.759 128.452,232.744 134.103 C 233.549 138.728,234.561 141.244,236.423 143.254 C 238.578 145.579,238.807 146.120,240.226 152.262 C 242.067 160.230,242.801 162.306,244.292 163.754 C 246.183 165.590,247.145 168.208,247.949 173.707 C 248.760 179.255,249.702 181.810,251.625 183.674 C 253.157 185.159,254.048 187.676,255.271 193.977 C 256.233 198.934,257.508 201.788,259.240 202.858 C 261.227 204.086,262.456 206.774,262.961 210.993 C 263.888 218.743,264.937 222.076,267.213 224.505 C 268.451 225.828,270.260 229.714,270.260 231.053 C 270.260 233.685,273.346 242.592,274.840 244.272 C 275.544 245.064,276.655 248.533,277.975 254.061 C 278.891 257.896,279.488 259.089,281.639 261.389 C 283.942 263.851,284.844 266.184,285.667 271.800 C 286.473 277.303,287.245 279.386,289.403 281.880 C 290.986 283.709,292.252 287.489,293.369 293.726 C 294.058 297.578,295.188 300.160,296.996 302.021 C 298.843 303.921,299.178 304.911,300.120 311.249 C 300.944 316.791,301.898 319.249,304.157 321.646 C 307.949 325.669,308.543 329.331,306.282 334.743 L 305.718 336.092 282.987 336.092 L 260.255 336.092 257.598 330.799 C 256.137 327.887,254.467 325.072,253.889 324.543 C 252.130 322.934,251.450 320.560,249.642 309.721 C 248.936 305.486,248.167 303.635,246.435 302.001 C 244.824 300.480,244.288 298.990,242.930 292.256 C 241.634 285.830,240.451 282.903,237.920 279.862 C 235.355 276.780,234.845 275.672,234.831 273.147 C 234.796 267.172,233.675 262.417,231.421 258.682 C 230.264 256.765,229.569 254.853,228.553 250.790 C 226.784 243.718,225.885 241.431,224.056 239.353 C 222.635 237.739,222.497 237.367,221.943 233.635 C 220.964 227.037,218.442 220.528,216.174 218.744 C 214.637 217.535,214.003 215.615,213.058 209.298 C 211.813 200.979,210.737 197.938,208.274 195.765 C 206.979 194.623,206.531 193.259,205.427 187.103 C 203.436 175.995,203.500 176.176,200.349 172.761 C 199.225 171.543,197.780 169.445,197.138 168.100 C 196.440 166.636,195.246 164.986,194.165 163.989 L 192.358 162.324 190.891 163.978 C 189.378 165.682,187.366 171.012,186.349 176.011 C 185.917 178.134,185.636 178.641,182.960 182.129 C 181.316 184.272,180.394 187.372,179.399 194.104 C 178.377 201.026,178.143 201.753,176.309 203.720 C 173.639 206.583,172.071 211.158,171.514 217.709 C 171.069 222.936,170.607 224.416,168.824 226.334 C 166.859 228.448,165.067 231.885,164.053 235.485 C 162.969 239.334,162.553 240.242,161.493 241.077 C 159.854 242.366,158.691 244.866,158.035 248.508 C 157.692 250.414,157.050 253.965,156.609 256.400 C 155.842 260.633,154.752 263.715,154.023 263.715 C 153.835 263.715,153.128 264.538,152.452 265.544 L 151.222 267.372 151.457 271.465 C 151.681 275.354,151.644 275.640,150.723 277.239 C 150.190 278.165,149.413 280.007,148.998 281.333 C 148.025 284.433,147.647 285.130,145.897 287.049 C 143.296 289.900,142.089 293.629,141.298 301.251 C 140.773 306.322,140.440 307.306,138.547 309.402 C 136.723 311.419,134.600 315.600,133.640 319.065 C 132.762 322.233,132.060 323.610,130.612 324.998 C 130.020 325.566,128.412 328.284,127.039 331.038 L 124.543 336.045 105.442 336.069 C 83.670 336.096,84.919 336.289,83.798 332.719 C 82.772 329.453,82.749 328.851,83.537 326.006 C 83.963 324.468,84.312 322.757,84.312 322.202 C 84.312 320.634,86.118 317.573,88.008 315.938 C 90.733 313.581,91.071 312.621,92.405 303.446 C 93.316 297.181,93.604 296.337,95.518 294.321 C 97.412 292.326,98.352 290.126,99.137 285.852 C 100.140 280.397,101.586 275.802,102.929 273.805 C 104.372 271.661,106.374 266.257,107.207 262.256 C 107.970 258.595,108.647 257.329,110.919 255.314 C 113.211 253.282,113.935 251.155,115.083 243.082 C 116.008 236.573,116.193 236.041,118.365 233.625 C 120.207 231.576,121.354 228.710,122.010 224.520 C 122.481 221.508,123.989 218.137,125.658 216.362 C 127.487 214.417,128.672 210.524,129.760 202.887 C 130.336 198.846,131.221 197.007,133.604 194.895 C 135.938 192.827,136.395 191.493,137.627 183.134 C 138.676 176.024,138.760 175.784,141.152 173.110 C 142.923 171.131,144.102 168.128,144.609 164.310 C 144.999 161.367,146.535 157.870,148.209 156.112 C 150.774 153.418,151.775 150.430,152.428 143.508 C 152.884 138.685,153.665 136.821,156.145 134.636 C 158.316 132.724,159.096 130.554,160.118 123.580 C 161.191 116.263,161.475 115.333,163.211 113.437 C 165.297 111.157,166.169 109.203,167.068 104.794 C 168.161 99.430,168.983 97.752,172.193 94.340 C 173.804 92.628,175.462 90.388,176.131 89.022 L 177.286 86.663 196.220 86.642 L 215.155 86.622 216.521 90.953 M194.989 173.862 C 198.998 179.188,201.057 184.116,203.061 193.179 C 204.193 198.293,204.774 199.753,206.692 202.291 C 208.671 204.910,209.250 206.565,210.001 211.760 C 211.153 219.724,212.124 222.463,214.617 224.784 C 217.023 227.023,217.956 229.412,218.319 234.252 C 218.724 239.670,219.777 242.767,222.132 245.472 C 223.689 247.261,225.453 251.933,225.967 255.630 C 226.536 259.729,227.315 262.836,228.553 265.945 L 229.517 268.368 228.471 269.740 C 227.893 270.498,226.542 271.524,225.454 272.030 L 223.484 272.947 192.762 272.951 C 159.341 272.955,161.070 273.066,158.950 270.775 C 157.221 268.908,157.009 268.201,157.687 266.578 C 158.018 265.785,158.632 263.560,159.052 261.634 C 160.290 255.948,161.706 251.335,162.844 249.278 C 164.355 246.548,165.841 242.628,166.443 239.783 C 167.116 236.600,168.284 234.385,170.555 231.982 C 173.045 229.348,173.964 226.543,174.471 220.028 C 174.946 213.919,175.478 212.355,178.073 209.447 C 179.287 208.086,180.334 206.446,180.702 205.326 C 181.282 203.564,182.862 194.979,182.866 193.566 C 182.870 192.319,184.488 188.578,185.551 187.360 C 187.180 185.492,188.137 183.320,189.167 179.161 C 190.164 175.130,191.826 170.934,192.425 170.934 C 192.623 170.934,193.776 172.252,194.989 173.862 M224.541 280.707 C 226.258 282.513,226.266 282.222,224.350 287.516 C 223.247 290.562,222.789 291.328,221.319 292.584 C 220.367 293.398,219.306 294.728,218.961 295.540 C 215.691 303.240,215.090 304.381,213.300 306.273 C 211.779 307.882,211.246 308.825,210.565 311.113 C 209.443 314.883,208.106 317.313,206.397 318.686 C 204.639 320.098,203.167 322.774,202.172 326.364 C 201.211 329.833,200.517 331.002,198.635 332.322 C 197.818 332.895,196.863 333.934,196.512 334.632 C 195.871 335.906,192.949 339.172,192.451 339.172 C 191.883 339.172,190.552 336.337,189.998 333.947 C 189.250 330.721,188.575 329.454,186.332 327.068 C 184.299 324.904,183.013 322.555,181.739 318.682 C 181.098 316.733,180.456 315.669,179.139 314.371 C 177.463 312.718,176.058 310.075,173.982 304.667 C 173.471 303.339,172.553 302.070,171.173 300.785 C 169.404 299.138,169.004 298.486,168.259 296.035 C 167.017 291.946,165.428 289.030,163.580 287.448 C 160.271 284.615,159.678 282.137,161.772 279.889 C 162.484 279.126,162.926 279.115,192.760 279.115 L 223.026 279.115 224.541 280.707 " stroke="none" fill="#848484" fill-rule="evenodd"></path><path id="path3" d="M174.158 82.158 C 172.463 82.947,172.034 83.385,171.119 85.255 C 170.342 86.843,169.677 87.624,168.665 88.141 C 165.736 89.636,164.642 92.049,162.854 100.962 C 162.586 102.296,162.210 103.176,161.908 103.176 C 159.438 103.176,157.405 108.047,156.290 116.637 C 155.159 125.353,155.291 124.911,153.323 126.524 C 151.146 128.308,149.996 130.754,149.186 135.322 C 147.705 143.681,147.465 144.440,145.709 146.330 C 143.209 149.022,142.095 151.968,140.497 160.105 C 140.066 162.301,139.790 162.786,137.858 164.725 C 135.169 167.424,134.620 169.043,133.581 177.343 C 132.551 185.573,132.649 185.262,130.517 187.060 C 128.256 188.966,127.268 191.272,126.286 196.933 C 125.416 201.944,124.856 203.420,123.526 204.206 C 121.609 205.338,120.553 207.160,119.919 210.424 C 119.594 212.102,118.875 215.640,118.323 218.287 L 117.319 223.099 115.500 224.717 C 113.151 226.806,112.153 229.167,111.422 234.367 C 111.102 236.640,110.598 240.219,110.301 242.322 C 109.889 245.245,109.598 246.233,109.067 246.520 C 106.229 248.054,104.495 251.584,103.565 257.722 C 102.963 261.695,102.313 262.971,100.446 263.845 C 98.036 264.972,97.072 267.035,96.426 272.452 C 95.275 282.090,94.932 283.335,92.964 285.017 C 90.005 287.546,89.521 289.073,87.822 301.241 C 87.317 304.855,86.902 306.672,86.557 306.779 C 84.275 307.490,81.180 313.401,80.020 319.265 C 79.638 321.197,79.381 321.633,78.089 322.537 C 75.657 324.239,74.389 327.316,74.077 332.266 C 73.742 337.596,74.597 339.332,78.350 340.953 C 80.678 341.959,122.708 342.287,126.017 341.326 C 128.518 340.598,130.683 338.705,131.080 336.898 C 131.244 336.150,132.038 335.145,133.294 334.093 C 135.748 332.039,136.933 329.544,137.489 325.261 C 138.148 320.192,138.713 318.962,141.080 317.448 C 144.363 315.348,145.186 312.707,145.709 302.599 C 145.944 298.064,146.700 295.284,147.699 295.284 C 149.635 295.284,152.133 291.267,153.205 286.429 C 154.429 280.906,154.776 280.787,155.907 285.499 C 157.177 290.788,158.964 293.928,161.243 294.872 C 162.492 295.389,164.004 297.786,164.004 299.248 C 164.004 302.257,166.854 307.836,168.942 308.916 C 170.063 309.496,171.116 311.687,172.289 315.879 C 172.819 317.771,173.330 318.579,175.128 320.360 C 177.079 322.293,177.502 323.014,178.969 326.906 C 180.827 331.838,181.837 333.388,183.797 334.318 C 184.888 334.836,185.233 335.282,185.552 336.586 C 188.336 347.961,192.479 351.077,196.515 344.832 C 198.087 342.400,200.006 340.399,201.765 339.358 C 203.472 338.347,205.407 334.552,206.178 330.703 C 206.623 328.479,206.980 327.638,207.733 327.045 C 211.523 324.058,213.097 321.380,214.793 315.038 C 215.052 314.069,215.506 313.335,215.929 313.201 C 217.570 312.680,219.457 310.177,220.279 307.431 C 221.337 303.899,222.705 301.194,223.702 300.660 C 225.120 299.901,227.430 295.822,228.093 292.906 C 228.607 290.645,229.488 288.284,230.058 287.636 C 230.354 287.300,235.161 290.355,236.443 291.694 C 238.027 293.349,239.205 296.795,239.644 301.059 C 240.269 307.119,242.120 312.531,244.248 314.516 C 245.444 315.632,246.568 319.136,247.156 323.580 C 248.186 331.363,249.338 334.495,252.303 337.567 C 256.539 341.956,256.424 341.941,284.312 341.791 C 309.402 341.656,309.583 341.639,312.270 339.129 C 313.713 337.780,318.610 337.900,323.504 339.404 L 326.508 340.327 350.417 340.327 L 374.326 340.327 375.608 339.349 C 376.313 338.811,377.071 338.034,377.292 337.622 C 377.828 336.619,377.840 86.502,377.303 85.499 C 376.247 83.526,374.169 82.305,372.323 82.573 C 369.558 82.975,365.378 84.548,363.851 85.761 C 361.782 87.406,359.957 87.991,352.809 89.300 C 343.703 90.967,341.422 91.692,339.360 93.577 C 338.113 94.715,336.260 95.326,330.125 96.622 C 323.985 97.920,320.926 99.058,319.353 100.632 L 318.383 101.601 318.377 211.243 C 318.371 329.728,318.481 323.234,316.416 327.346 C 314.197 331.764,313.185 332.289,312.836 329.203 C 311.988 321.711,309.971 316.556,307.216 314.843 C 305.065 313.506,305.225 313.982,304.141 305.710 C 303.006 297.051,302.239 294.760,299.824 292.824 C 299.127 292.265,298.373 291.661,298.149 291.482 C 297.925 291.303,297.344 288.751,296.858 285.810 C 295.367 276.784,294.408 273.899,291.930 270.984 C 290.923 269.799,290.220 268.535,290.075 267.647 C 288.840 260.102,287.121 256.029,284.481 254.388 C 283.435 253.737,282.579 253.101,282.579 252.974 C 282.579 252.847,282.246 250.751,281.838 248.316 C 281.430 245.881,280.901 242.350,280.661 240.470 C 280.051 235.674,278.654 233.060,275.854 231.480 C 275.338 231.189,273.881 225.339,272.807 219.249 C 272.062 215.019,270.886 212.112,269.269 210.494 C 268.137 209.363,267.749 208.514,267.000 205.527 C 265.309 198.784,262.951 194.356,260.644 193.586 C 260.320 193.478,259.683 190.882,258.861 186.315 C 257.439 178.416,256.268 175.087,254.060 172.666 C 252.566 171.029,252.167 169.621,250.187 158.999 C 249.318 154.339,248.202 151.629,246.412 149.840 C 245.450 148.878,244.973 147.873,244.404 145.608 C 242.651 138.627,241.223 135.538,239.064 134.057 C 237.309 132.853,237.448 133.259,236.171 125.577 C 234.986 118.440,233.808 115.080,231.574 112.463 C 230.407 111.096,229.830 110.018,229.649 108.865 C 228.416 100.995,225.585 93.928,223.087 92.480 C 222.825 92.328,222.060 90.472,221.386 88.354 C 218.955 80.706,220.822 81.231,196.069 81.236 L 176.131 81.239 174.158 82.158 M217.318 84.408 C 218.673 85.773,219.175 86.747,220.349 90.279 C 221.123 92.608,222.058 94.967,222.427 95.521 C 222.797 96.075,223.576 97.241,224.159 98.114 C 225.574 100.231,226.931 103.929,228.337 109.495 C 229.669 114.772,230.195 116.161,231.519 117.902 C 232.925 119.751,233.853 122.413,235.043 128.008 C 236.195 133.425,237.050 135.804,238.330 137.154 C 239.955 138.866,241.420 141.964,243.110 147.257 C 244.056 150.221,245.527 154.029,246.380 155.719 C 247.233 157.409,247.931 159.010,247.931 159.276 C 247.931 159.542,248.444 161.364,249.072 163.326 C 249.700 165.287,250.729 168.933,251.359 171.428 C 252.222 174.845,252.830 176.413,253.822 177.780 C 255.533 180.138,256.507 182.838,257.725 188.607 C 258.846 193.918,259.447 195.572,260.955 197.498 C 263.968 201.344,264.789 203.088,266.438 209.152 C 267.058 211.432,268.075 214.253,268.698 215.420 C 269.710 217.317,271.257 221.869,273.679 230.079 C 274.124 231.588,275.100 233.667,275.847 234.699 C 277.887 237.515,278.177 238.352,279.712 245.840 C 281.247 253.329,281.855 254.906,284.055 257.106 C 286.080 259.131,287.074 261.483,288.767 268.256 C 289.986 273.132,290.479 274.472,291.633 276.043 C 293.355 278.390,294.167 280.667,295.446 286.737 C 296.639 292.396,297.009 293.345,299.089 296.075 C 301.073 298.678,302.025 301.643,303.039 308.373 C 303.832 313.634,304.884 316.456,306.247 316.979 C 308.392 317.802,311.004 325.049,311.470 331.473 L 311.792 335.900 310.581 337.155 C 307.777 340.061,308.948 339.942,283.023 339.942 L 259.840 339.942 257.989 339.005 C 254.109 337.038,250.662 330.820,248.473 321.834 C 246.581 314.071,245.910 312.015,243.927 307.914 C 242.974 305.944,241.931 303.292,241.609 302.021 C 241.287 300.751,240.578 297.901,240.034 295.689 C 238.428 289.160,238.221 288.842,234.183 286.718 C 232.270 285.712,230.512 284.889,230.275 284.889 C 229.783 284.889,227.162 290.019,226.361 292.550 C 226.062 293.496,225.035 295.109,224.032 296.207 C 222.726 297.638,221.641 299.531,220.038 303.176 C 218.391 306.918,217.407 308.622,216.134 309.929 C 214.950 311.146,214.086 312.574,213.298 314.621 C 211.603 319.024,210.316 321.369,208.514 323.343 C 206.349 325.714,205.859 326.563,204.819 329.740 C 204.334 331.222,203.685 332.935,203.376 333.545 C 202.674 334.933,193.793 344.622,192.761 345.126 C 191.444 345.770,188.684 341.808,187.374 337.393 C 186.554 334.628,185.749 333.200,184.235 331.823 C 182.779 330.497,180.665 326.711,179.182 322.770 C 178.542 321.070,177.570 319.481,176.360 318.157 C 175.314 317.013,174.127 315.164,173.622 313.892 C 171.957 309.700,170.064 306.262,168.407 304.417 C 167.220 303.096,166.472 301.729,165.751 299.562 C 164.628 296.190,163.127 293.611,161.117 291.602 C 159.471 289.956,158.191 287.494,157.128 283.927 C 155.358 277.989,153.789 278.379,151.706 285.274 C 150.565 289.051,150.016 290.068,147.806 292.494 C 145.285 295.261,144.370 297.839,144.370 302.167 C 144.370 307.788,142.519 313.605,140.207 315.251 C 138.712 316.317,136.894 319.916,136.153 323.282 C 135.451 326.472,134.490 328.548,132.450 331.280 C 131.660 332.339,130.392 334.244,129.633 335.515 C 128.763 336.972,127.646 338.216,126.610 338.884 L 124.966 339.942 104.735 339.925 C 75.077 339.901,75.150 339.922,76.391 331.665 C 76.856 328.569,77.157 327.649,78.079 326.501 C 79.583 324.629,80.574 322.585,81.546 319.346 C 82.366 316.613,84.223 313.165,86.230 310.646 C 87.700 308.801,88.764 305.358,89.672 299.505 C 90.544 293.882,91.545 290.949,93.438 288.469 C 95.414 285.881,95.792 284.765,97.630 276.084 C 98.718 270.950,99.530 267.977,99.982 267.474 C 100.363 267.052,101.209 266.137,101.864 265.440 C 103.101 264.124,104.177 261.505,105.295 257.089 C 105.726 255.385,106.526 253.680,107.645 252.084 C 110.504 248.005,111.152 246.288,112.004 240.528 C 113.092 233.181,114.114 230.300,116.719 227.237 C 117.309 226.543,118.148 224.739,118.600 223.194 C 121.009 214.952,123.019 209.091,123.908 207.711 C 125.506 205.234,126.238 203.387,127.258 199.265 C 128.337 194.906,129.254 192.803,131.177 190.285 C 133.190 187.647,133.822 185.790,134.716 179.894 C 135.683 173.509,136.678 170.332,138.429 168.037 C 140.245 165.658,141.108 163.827,141.870 160.731 C 142.905 156.531,144.689 152.214,146.211 150.226 C 147.925 147.987,148.294 146.938,149.571 140.680 C 150.702 135.135,151.636 132.768,153.815 129.933 C 155.807 127.340,156.531 125.269,157.252 120.099 C 158.248 112.959,159.289 109.737,161.429 107.174 C 162.834 105.490,163.425 104.136,164.735 99.596 C 166.185 94.572,167.398 92.079,169.080 90.663 C 169.775 90.078,171.223 88.453,172.298 87.052 C 173.373 85.651,174.831 84.115,175.538 83.638 L 176.822 82.772 196.258 82.772 L 215.693 82.772 217.318 84.408 M367.816 92.163 C 368.522 92.459,369.383 93.104,369.728 93.596 C 370.414 94.575,370.684 327.465,370.005 331.598 C 369.386 335.363,370.880 335.115,348.083 335.236 L 328.140 335.342 327.644 334.274 C 325.532 329.727,325.697 339.594,325.701 218.515 C 325.704 111.586,325.727 107.890,326.429 104.957 C 327.309 101.279,326.818 101.588,333.494 100.525 C 344.865 98.714,348.728 97.499,350.184 95.277 C 350.835 94.284,356.428 92.810,362.271 92.093 C 366.460 91.578,366.414 91.578,367.816 92.163 M191.086 173.147 C 190.548 174.365,189.684 177.071,189.167 179.161 C 188.137 183.320,187.180 185.492,185.551 187.360 C 184.488 188.578,182.870 192.319,182.866 193.566 C 182.862 194.979,181.282 203.564,180.702 205.326 C 180.334 206.446,179.287 208.086,178.073 209.447 C 175.478 212.355,174.946 213.919,174.471 220.028 C 173.964 226.543,173.045 229.348,170.555 231.982 C 168.284 234.385,167.116 236.600,166.443 239.783 C 165.841 242.628,164.355 246.548,162.844 249.278 C 161.706 251.335,160.290 255.948,159.052 261.634 C 158.632 263.560,158.018 265.785,157.687 266.578 C 157.009 268.201,157.221 268.908,158.950 270.775 C 161.070 273.066,159.341 272.955,192.762 272.951 L 223.484 272.947 225.454 272.030 C 226.542 271.524,227.893 270.498,228.471 269.740 L 229.517 268.368 228.553 265.945 C 227.315 262.836,226.536 259.729,225.967 255.630 C 225.453 251.933,223.689 247.261,222.132 245.472 C 219.777 242.767,218.724 239.670,218.319 234.252 C 217.956 229.412,217.023 227.023,214.617 224.784 C 212.124 222.463,211.153 219.724,210.001 211.760 C 209.250 206.565,208.671 204.910,206.692 202.291 C 204.774 199.753,204.193 198.293,203.061 193.179 C 201.057 184.116,198.998 179.188,194.989 173.862 C 192.347 170.352,192.324 170.348,191.086 173.147 M193.888 175.681 C 194.550 176.581,195.221 177.917,195.379 178.649 C 195.980 181.435,197.269 184.210,198.665 185.724 C 200.246 187.440,201.306 190.737,202.077 196.343 C 202.848 201.944,204.077 204.434,207.026 206.363 C 207.762 206.845,207.983 207.566,208.495 211.165 C 210.206 223.187,210.177 223.047,211.282 224.636 C 211.870 225.481,213.026 226.551,213.851 227.014 C 216.095 228.272,216.712 229.754,216.731 233.932 C 216.764 241.122,218.485 246.511,221.390 248.525 C 223.353 249.884,224.025 251.749,224.492 257.130 C 224.705 259.580,225.128 262.887,225.433 264.479 C 226.172 268.341,226.207 268.170,224.389 269.487 L 222.791 270.645 192.614 270.645 C 159.973 270.645,161.225 270.721,160.124 268.664 C 159.183 266.905,161.549 255.597,163.119 254.351 C 165.212 252.691,167.338 246.544,168.069 240.038 C 168.343 237.597,169.586 234.841,170.414 234.841 C 173.589 234.841,175.931 228.114,175.936 218.974 C 175.939 214.948,176.606 212.719,177.935 212.297 C 179.117 211.922,180.939 210.180,181.688 208.710 C 182.388 207.335,182.634 205.998,183.844 196.986 C 184.582 191.490,184.468 191.782,186.381 190.455 C 188.457 189.014,189.620 186.364,190.393 181.318 C 190.988 177.434,191.957 173.997,192.449 174.028 C 192.579 174.037,193.227 174.780,193.888 175.681 " stroke="none" fill="#045854" fill-rule="evenodd"></path><path id="path4" d="M0.000 192.493 L 0.000 384.986 200.000 384.986 L 400.000 384.986 400.000 192.493 L 400.000 0.000 200.000 0.000 L 0.000 0.000 0.000 192.493 M217.527 82.007 C 219.483 83.005,219.907 83.703,221.386 88.354 C 222.060 90.472,222.825 92.328,223.087 92.480 C 225.585 93.928,228.416 100.995,229.649 108.865 C 229.830 110.018,230.407 111.096,231.574 112.463 C 233.808 115.080,234.986 118.440,236.171 125.577 C 237.448 133.259,237.309 132.853,239.064 134.057 C 241.223 135.538,242.651 138.627,244.404 145.608 C 244.973 147.873,245.450 148.878,246.412 149.840 C 248.202 151.629,249.318 154.339,250.187 158.999 C 252.167 169.621,252.566 171.029,254.060 172.666 C 256.268 175.087,257.439 178.416,258.861 186.315 C 259.683 190.882,260.320 193.478,260.644 193.586 C 262.951 194.356,265.309 198.784,267.000 205.527 C 267.749 208.514,268.137 209.363,269.269 210.494 C 270.886 212.112,272.062 215.019,272.807 219.249 C 273.881 225.339,275.338 231.189,275.854 231.480 C 278.654 233.060,280.051 235.674,280.661 240.470 C 280.901 242.350,281.430 245.881,281.838 248.316 C 282.246 250.751,282.579 252.847,282.579 252.974 C 282.579 253.101,283.435 253.737,284.481 254.388 C 287.121 256.029,288.840 260.102,290.075 267.647 C 290.220 268.535,290.923 269.799,291.930 270.984 C 294.408 273.899,295.367 276.784,296.858 285.810 C 297.344 288.751,297.925 291.303,298.149 291.482 C 298.373 291.661,299.127 292.265,299.824 292.824 C 302.239 294.760,303.006 297.051,304.141 305.710 C 305.225 313.982,305.065 313.506,307.216 314.843 C 309.971 316.556,311.988 321.711,312.836 329.203 C 313.185 332.289,314.197 331.764,316.416 327.346 C 318.481 323.234,318.371 329.728,318.377 211.243 L 318.383 101.601 319.353 100.632 C 320.926 99.058,323.985 97.920,330.125 96.622 C 336.260 95.326,338.113 94.715,339.360 93.577 C 341.422 91.692,343.703 90.967,352.809 89.300 C 359.957 87.991,361.782 87.406,363.851 85.761 C 365.378 84.548,369.558 82.975,372.323 82.573 C 374.169 82.305,376.247 83.526,377.303 85.499 C 377.840 86.502,377.828 336.619,377.292 337.622 C 377.071 338.034,376.313 338.811,375.608 339.349 L 374.326 340.327 350.417 340.327 L 326.508 340.327 323.504 339.404 C 318.610 337.900,313.713 337.780,312.270 339.129 C 309.583 341.639,309.402 341.656,284.312 341.791 C 256.424 341.941,256.539 341.956,252.303 337.567 C 249.338 334.495,248.186 331.363,247.156 323.580 C 246.568 319.136,245.444 315.632,244.248 314.516 C 242.120 312.531,240.269 307.119,239.644 301.059 C 239.205 296.795,238.027 293.349,236.443 291.694 C 235.161 290.355,230.354 287.300,230.058 287.636 C 229.488 288.284,228.607 290.645,228.093 292.906 C 227.430 295.822,225.120 299.901,223.702 300.660 C 222.705 301.194,221.337 303.899,220.279 307.431 C 219.457 310.177,217.570 312.680,215.929 313.201 C 215.506 313.335,215.052 314.069,214.793 315.038 C 213.097 321.380,211.523 324.058,207.733 327.045 C 206.980 327.638,206.623 328.479,206.178 330.703 C 205.407 334.552,203.472 338.347,201.765 339.358 C 200.006 340.399,198.087 342.400,196.515 344.832 C 192.479 351.077,188.336 347.961,185.552 336.586 C 185.233 335.282,184.888 334.836,183.797 334.318 C 181.837 333.388,180.827 331.838,178.969 326.906 C 177.502 323.014,177.079 322.293,175.128 320.360 C 173.330 318.579,172.819 317.771,172.289 315.879 C 171.116 311.687,170.063 309.496,168.942 308.916 C 166.854 307.836,164.004 302.257,164.004 299.248 C 164.004 297.786,162.492 295.389,161.243 294.872 C 158.964 293.928,157.177 290.788,155.907 285.499 C 154.776 280.787,154.429 280.906,153.205 286.429 C 152.133 291.267,149.635 295.284,147.699 295.284 C 146.700 295.284,145.944 298.064,145.709 302.599 C 145.186 312.707,144.363 315.348,141.080 317.448 C 138.713 318.962,138.148 320.192,137.489 325.261 C 136.933 329.544,135.748 332.039,133.294 334.093 C 132.038 335.145,131.244 336.150,131.080 336.898 C 130.683 338.705,128.518 340.598,126.017 341.326 C 122.708 342.287,80.678 341.959,78.350 340.953 C 74.597 339.332,73.742 337.596,74.077 332.266 C 74.389 327.316,75.657 324.239,78.089 322.537 C 79.381 321.633,79.638 321.197,80.020 319.265 C 81.180 313.401,84.275 307.490,86.557 306.779 C 86.902 306.672,87.317 304.855,87.822 301.241 C 89.521 289.073,90.005 287.546,92.964 285.017 C 94.932 283.335,95.275 282.090,96.426 272.452 C 97.072 267.035,98.036 264.972,100.446 263.845 C 102.313 262.971,102.963 261.695,103.565 257.722 C 104.495 251.584,106.229 248.054,109.067 246.520 C 109.598 246.233,109.889 245.245,110.301 242.322 C 110.598 240.219,111.102 236.640,111.422 234.367 C 112.153 229.167,113.151 226.806,115.500 224.717 L 117.319 223.099 118.323 218.287 C 118.875 215.640,119.594 212.102,119.919 210.424 C 120.553 207.160,121.609 205.338,123.526 204.206 C 124.856 203.420,125.416 201.944,126.286 196.933 C 127.268 191.272,128.256 188.966,130.517 187.060 C 132.649 185.262,132.551 185.573,133.581 177.343 C 134.620 169.043,135.169 167.424,137.858 164.725 C 139.790 162.786,140.066 162.301,140.497 160.105 C 142.095 151.968,143.209 149.022,145.709 146.330 C 147.465 144.440,147.705 143.681,149.186 135.322 C 149.996 130.754,151.146 128.308,153.323 126.524 C 155.291 124.911,155.159 125.353,156.290 116.637 C 157.405 108.047,159.438 103.176,161.908 103.176 C 162.210 103.176,162.586 102.296,162.854 100.962 C 164.642 92.049,165.736 89.636,168.665 88.141 C 169.677 87.624,170.342 86.843,171.119 85.255 C 172.034 83.385,172.463 82.947,174.158 82.158 L 176.131 81.239 196.069 81.236 C 215.294 81.232,216.062 81.260,217.527 82.007 M191.611 175.650 C 191.281 176.550,190.732 179.100,190.393 181.318 C 189.620 186.364,188.457 189.014,186.381 190.455 C 184.468 191.782,184.582 191.490,183.844 196.986 C 182.634 205.998,182.388 207.335,181.688 208.710 C 180.939 210.180,179.117 211.922,177.935 212.297 C 176.606 212.719,175.939 214.948,175.936 218.974 C 175.931 228.114,173.589 234.841,170.414 234.841 C 169.586 234.841,168.343 237.597,168.069 240.038 C 167.338 246.544,165.212 252.691,163.119 254.351 C 161.549 255.597,159.183 266.905,160.124 268.664 C 161.225 270.721,159.973 270.645,192.614 270.645 L 222.791 270.645 224.389 269.487 C 226.207 268.170,226.172 268.341,225.433 264.479 C 225.128 262.887,224.705 259.580,224.492 257.130 C 224.025 251.749,223.353 249.884,221.390 248.525 C 218.485 246.511,216.764 241.122,216.731 233.932 C 216.712 229.754,216.095 228.272,213.851 227.014 C 213.026 226.551,211.870 225.481,211.282 224.636 C 210.177 223.047,210.206 223.187,208.495 211.165 C 207.983 207.566,207.762 206.845,207.026 206.363 C 204.077 204.434,202.848 201.944,202.077 196.343 C 201.306 190.737,200.246 187.440,198.665 185.724 C 197.269 184.210,195.980 181.435,195.379 178.649 C 195.112 177.416,192.986 174.063,192.449 174.028 C 192.319 174.020,191.942 174.750,191.611 175.650 " stroke="none" fill="#040404" fill-rule="evenodd"></path></g></svg>